<?xml version="1.0" standalone="no"?><!DOCTYPE svg PUBLIC "-//W3C//DTD SVG 1.1//EN" "http://www.w3.org/Graphics/SVG/1.1/DTD/svg11.dtd"><svg t="1691504200675" class="icon" viewBox="0 0 1024 1024" version="1.1" xmlns="http://www.w3.org/2000/svg" p-id="6695" xmlns:xlink="http://www.w3.org/1999/xlink" width="200" height="200"><path d="M0.002613 3.135755h1020.864245v1020.864245H0.002613z" fill="#E19E3F" p-id="6696"></path><path d="M104.460846 252.452922l-0.765649-11.671881-0.755439 11.962827 0.340288 5.388462v12.619584l0.017014 0.411748c0.006806 0.175248 0.175248 4.241691 0.399839 4.422044l0.013611 0.006806c0.222889 0 0.367511-4.156619 0.372616-4.33527l0.013611-0.411749v-12.595763l0.364109-5.796808m-0.765649-8.607587l0.568282 8.67054-0.568282 9.116318-0.561475-8.890026 0.561475-8.896832m0.316468 25.746196c-0.037432 0.939195-0.154831 3.351838-0.311363 3.23614-0.159935-0.127608-0.290946-2.538549-0.335184-3.481147v-9.847937l0.328378 5.214915 0.316468-5.085606v9.963635h0.001701m0 0zM828.809967 631.886043l-126.474872-126.648418 114.321483-114.18877c19.193949-19.190546 22.877568-45.402937 14.235952-70.032989-14.072614-33.586434-75.002896-81.56365-102.346745-108.910902-23.993713-24.138335-64.436951-25.103052-89.22864-1.11104l-115.772811 115.767707-126.665433-126.641613c-8.789641-8.631407-23.018787-8.631407-31.976871 0l-142.643659 142.47862c-8.631407 8.629706-8.631407 23.025593 0 31.978572l126.66203 126.502095-126.495289 126.639911c-3.998385 3.996684-6.553948 9.924502-6.553948 15.671967 0 49.095063-0.161637 97.877061-0.161637 146.803682 0 12.478364 9.759462 23.027294 22.545787 23.027294h146.810487c5.909103 0 11.818205-2.227185 16.308306-6.715585l126.33195-126.48508 126.314936 126.170313 0.641443 0.314767c8.478278 8.791343 23.039205 8.791343 31.667209 0l142.480322-142.647062c9.119721-8.954681 9.119721-23.02219 0-31.973469M670.659379 243.137536c7.353625-6.715585 19.193949-6.239182 26.236211 0.949404 29.263074 29.278387 58.691187 59.017863 88.258819 88.114196 7.350223 7.2056 7.045665 19.831989 0 27.03929l-40.461955 40.133577-25.411012-25.744495v-0.163338l-1.13316-0.63804-0.314766-0.328378-62.368-62.043025v-0.641443l-0.151428-0.307961h-0.323274l-25.431429-25.269793 41.099994-41.099994m19.353885 139.598081c-115.293005 115.789826-231.084532 231.229154-346.530667 347.01898l-44.308911-44.295299 347.182318-346.690603c14.402693 14.863783 29.266476 29.567631 43.65726 43.966922M270.240692 358.595581l110.498346-110.826724 21.579368 21.584473-39.332197 39.350913c-5.274465 5.269361-5.274465 13.900768 0 19.025507 5.269361 5.112828 13.917783 5.112828 19.192247 0l39.16886-39.347511 31.995587 31.832249-19.826885 19.993626c-5.29148 5.437804-5.29148 13.900768 0 19.175233 5.265958 5.437804 13.90247 5.437804 19.030611 0l19.971507-19.978313 19.044223 19.030611-110.823321 110.806307-110.498346-110.646371m340.128146-55.182817l16.794918 16.327022-346.852238 346.67699-16.473346-16.458033 346.530666-346.545979M260.806205 768.125481c0-27.821954-0.159935-55.642206-0.159936-82.986054l83.149393 82.986054h-82.989457m118.178648-3.030265l-16.633282-16.471645c115.769408-115.463149 231.232557-231.239363 346.857343-347.00707l16.459735 16.623073-346.683796 346.855642m291.346148-6.565859l-110.809709-110.340112 110.809709-110.661684 21.27311 20.960045-19.978314 19.668651c-5.123037 5.742361-5.123037 14.229146 0 19.188845 5.439505 5.437804 14.067509 5.437804 19.030611 0l19.978314-19.663547 31.997288 31.811831-39.515954 39.662278c-5.106023 5.111127-5.106023 13.426066 0 19.188844 5.601142 4.946087 13.924588 4.946087 19.190547 0l39.50064-39.987252 19.520626 19.830288-110.996868 110.341813m0 0z" fill="#FFFFFF" p-id="6697"></path></svg>